<svg xmlns="http://www.w3.org/2000/svg" width="18" height="20" viewBox="0 0 18 20" fill="none">
                  <path
                    d="M15.1742 7.93861V7.30447C15.1742 3.82261 12.4547 1 9.1 1C5.7453 1 3.02578 3.82261 3.02578 7.30447V7.93861C3.02578 8.69964 2.80874 9.44364 2.40202 10.0769L1.40532 11.6286C0.494941 13.0459 1.18994 14.9724 2.77333 15.4206C6.91547 16.5931 11.2845 16.5931 15.4267 15.4206C17.0101 14.9724 17.7051 13.0459 16.7947 11.6286L15.798 10.0769C15.3913 9.44364 15.1742 8.69964 15.1742 7.93861Z"
                    stroke="black"
                    strokeWidth="1.2"
                  />
                  <path
                    d="M5.05078 16.3C5.64031 17.873 7.23099 19 9.10078 19C10.9706 19 12.5613 17.873 13.1508 16.3"
                    stroke="black"
                    strokeWidth="1.2"
                    strokeLinecap="round"
                  />
                </svg>