
<svg width="16" height="18" viewBox="0 0 16 18" fill="none" xmlns="http://www.w3.org/2000/svg">
<g id="Vector">
<path d="M5.53846 3.34883C5.19859 3.34883 4.92308 3.62995 4.92308 3.97674C4.92308 4.32352 5.19859 4.60464 5.53846 4.60464H10.4615C10.8014 4.60464 11.0769 4.32352 11.0769 3.97674C11.0769 3.62995 10.8014 3.34883 10.4615 3.34883H5.53846Z" fill="black"/>
<path fill-rule="evenodd" clip-rule="evenodd" d="M7.95282 2.26471e-07C6.25226 -1.20992e-05 4.91254 -2.17706e-05 3.86566 0.145146C2.79074 0.294204 1.93321 0.606711 1.25936 1.30172C0.586416 1.99579 0.284652 2.8775 0.140554 3.98294C-1.98632e-05 5.06135 -1.10478e-05 6.44199 2.00652e-07 8.19716V12.4652C-8.6514e-06 13.7273 -1.56462e-05 14.7266 0.0787772 15.479C0.156644 16.2225 0.323671 16.8932 0.800689 17.3418C1.18339 17.7016 1.66737 17.9285 2.18392 17.9888C2.83005 18.0642 3.43334 17.7494 4.02764 17.3199C4.62903 16.8853 5.35857 16.2269 6.27901 15.3962L6.30896 15.3691C6.73569 14.984 7.02459 14.7241 7.26563 14.5443C7.4986 14.3705 7.64083 14.3076 7.76072 14.283C7.9187 14.2505 8.0813 14.2505 8.23928 14.283C8.35917 14.3076 8.5014 14.3705 8.73437 14.5443C8.97541 14.7241 9.26431 14.984 9.69104 15.3691L9.72104 15.3962C10.6415 16.2269 11.371 16.8853 11.9724 17.3199C12.5667 17.7494 13.17 18.0642 13.8161 17.9888C14.3326 17.9285 14.8166 17.7016 15.1993 17.3418C15.6763 16.8932 15.8434 16.2225 15.9212 15.479C16 14.7266 16 13.7273 16 12.4652V8.19713C16 6.44199 16 5.06134 15.8594 3.98294C15.7154 2.8775 15.4136 1.99579 14.7406 1.30172C14.0668 0.606711 13.2093 0.294204 12.1343 0.145146C11.0875 -2.17706e-05 9.74774 -1.20992e-05 8.04718 2.26471e-07H7.95282ZM2.13432 2.18492C2.54192 1.76451 3.0954 1.51931 4.03141 1.38952C4.98581 1.25717 6.24185 1.25581 8 1.25581C9.75815 1.25581 11.0142 1.25717 11.9686 1.38952C12.9046 1.51931 13.4581 1.76451 13.8657 2.18492C14.2742 2.60626 14.5132 3.17987 14.6394 4.14851C14.768 5.13452 14.7692 6.43162 14.7692 8.24441V12.4249C14.7692 13.7362 14.7684 14.668 14.6974 15.3455C14.6247 16.0399 14.4906 16.3005 14.3652 16.4183C14.1734 16.5987 13.9322 16.7112 13.6762 16.7411C13.5124 16.7603 13.2378 16.6956 12.6838 16.2951C12.1434 15.9046 11.4635 15.2922 10.5064 14.4285L10.485 14.4091C10.0852 14.0483 9.75358 13.749 9.46084 13.5306C9.1548 13.3022 8.84614 13.1267 8.48232 13.0519C8.16392 12.9865 7.83608 12.9865 7.51768 13.0519C7.15386 13.1267 6.8452 13.3022 6.53916 13.5306C6.24642 13.749 5.91484 14.0483 5.51504 14.4091L5.49356 14.4285C4.53651 15.2922 3.85663 15.9046 3.31623 16.2951C2.76222 16.6956 2.48764 16.7603 2.32384 16.7411C2.06785 16.7112 1.8266 16.5987 1.63477 16.4183C1.50944 16.3005 1.3753 16.0399 1.30258 15.3455C1.23162 14.668 1.23077 13.7362 1.23077 12.4249V8.24441C1.23077 6.43162 1.23205 5.13452 1.36058 4.14851C1.48684 3.17987 1.72581 2.60626 2.13432 2.18492Z" fill="black"/>
</g>
</svg>
