<svg width="20" height="20" viewBox="0 0 20 20" fill="none" xmlns="http://www.w3.org/2000/svg">
<g clip-path="url(#clip0_2389_262782)">
<path d="M12.1233 6.80024L12.2386 7.13932H12.5967H16.7984H17.807C18.2968 7.13932 18.4945 7.7706 18.0922 8.05L13.9164 10.95L13.607 11.1649L13.7282 11.5216L15.3475 16.2852C15.5027 16.7419 14.9851 17.1319 14.5889 16.8568L10.2852 13.868L10 13.6699L9.71479 13.868L5.41115 16.8568C5.01494 17.1319 4.4973 16.7419 4.65254 16.2852L6.27177 11.5216L6.39302 11.1649L6.08358 10.95L1.90781 8.05C1.50551 7.7706 1.70321 7.13932 2.19302 7.13932H7.40325H7.76139L7.87665 6.80024L9.5266 1.94628C9.68028 1.49417 10.3197 1.49417 10.4734 1.94628L12.1233 6.80024Z" stroke="#484848"/>
</g>
<defs>
<clipPath id="clip0_2389_262782">
<rect width="20" height="20" fill="white"/>
</clipPath>
</defs>
</svg>
