<svg width="20" height="20" viewBox="0 0 20 20" fill="none" xmlns="http://www.w3.org/2000/svg">
<path fill-rule="evenodd" clip-rule="evenodd" d="M10 3.11628C6.19823 3.11628 3.11628 6.19823 3.11628 10C3.11628 13.8018 6.19823 16.8837 10 16.8837C13.8018 16.8837 16.8837 13.8018 16.8837 10C16.8837 6.19823 13.8018 3.11628 10 3.11628ZM2 10C2 5.58172 5.58172 2 10 2C14.4183 2 18 5.58172 18 10C18 14.4183 14.4183 18 10 18C5.58172 18 2 14.4183 2 10ZM10 7.5814C8.66424 7.5814 7.5814 8.66424 7.5814 10C7.5814 11.3358 8.66424 12.4186 10 12.4186C11.3358 12.4186 12.4186 11.3358 12.4186 10C12.4186 8.66424 11.3358 7.5814 10 7.5814ZM6.46512 10C6.46512 8.04774 8.04774 6.46512 10 6.46512C11.9523 6.46512 13.5349 8.04774 13.5349 10C13.5349 11.9523 11.9523 13.5349 10 13.5349C8.04774 13.5349 6.46512 11.9523 6.46512 10Z" fill="#252525"/>
<circle cx="10" cy="10" r="3" fill="#252525"/>
</svg>
